<svg xmlns="http://www.w3.org/2000/svg" width="70" height="61.6" viewBox="0 0 70 61.6">
  <g id="Group_332" data-name="Group 332" transform="translate(-26 -137)">
    <path id="Path_5" data-name="Path 5" d="M244.424,7.941c0,.295-.49.534-1.094.534h-2.169c-.6,0-1.094-.239-1.094-.534V1.4c0-.295.49-.534,1.094-.534h2.169c.6,0,1.094.239,1.094.534Z" transform="translate(-181.246 136.131)" fill="#d1d5d5"/>
    <path id="Path_6" data-name="Path 6" d="M240.067,1.445V7.983c0,.269.41.492.942.528V.917C240.477.953,240.067,1.175,240.067,1.445Z" transform="translate(-181.246 136.089)" fill="#2d404e" opacity="0.2"/>
    <path id="Path_7" data-name="Path 7" d="M244.424,400.666a1.036,1.036,0,0,1-1.094.966h-2.169a1.036,1.036,0,0,1-1.094-.966V388.835a1.036,1.036,0,0,1,1.094-.966h2.169a1.036,1.036,0,0,1,1.094.966Z" transform="translate(-181.246 -204.15)" fill="#d1d5d5"/>
    <path id="Path_8" data-name="Path 8" d="M128.656,409.8c-.167.534-.524.686-1.2.721h-2.424a.973.973,0,0,1-.753-1.224l3.694-11.846a1.135,1.135,0,0,1,1.356-.711l2.091.509a.973.973,0,0,1,.753,1.224Z" transform="translate(-81.249 -211.916)" fill="#d1d5d5"/>
    <path id="Path_9" data-name="Path 9" d="M332.958,409.8c.167.534.524.686,1.2.721h2.424a.973.973,0,0,0,.753-1.224l-3.694-11.846a1.135,1.135,0,0,0-1.356-.711l-2.091.509a.973.973,0,0,0-.753,1.224Z" transform="translate(-258.365 -211.916)" fill="#d1d5d5"/>
    <path id="Path_10" data-name="Path 10" d="M70,71.088a3.5,3.5,0,0,1-3.691,3.26H3.691A3.5,3.5,0,0,1,0,71.088V31.128a3.5,3.5,0,0,1,3.691-3.26H66.309A3.5,3.5,0,0,1,70,31.128Z" transform="translate(26 112.391)" fill="#48b19b"/>
    <g id="Group_22" data-name="Group 22" transform="translate(28.961 142.695)">
      <path id="Path_11" data-name="Path 11" d="M21.937,89.651a.264.264,0,0,1-.277-.248V48.292a.264.264,0,0,1,.277-.248H85.46a.264.264,0,0,1,.277.248V89.4a.264.264,0,0,1-.277.248Z" transform="translate(-21.66 -48.044)" fill="#253744"/>
      <path id="Path_12" data-name="Path 12" d="M31.266,96.611A.253.253,0,0,1,31,96.375V57.454a.253.253,0,0,1,.266-.235H92.257a.253.253,0,0,1,.266.235V96.375a.253.253,0,0,1-.266.235Z" transform="translate(-29.723 -56.111)" fill="#2d404e"/>
    </g>
    <g id="Group_23" data-name="Group 23" transform="translate(37.082 153.46)">
      <path id="Path_13" data-name="Path 13" d="M83.853,173.791c.081-.281.437-.062.394-.376.3.088.484.023.671.139.045-.05-.023-.164.214-.19.008.06.15.09.156.134.706-.228,1.614.507,2.2.626,1.421,1.588-.423,3.257-.76,4.657-.7.409-.64,1.326-1.357,1.722.008.681-1.234,1.618-1.431,2.427a2.991,2.991,0,0,0,1.831-.895c.2-.067.287.09.259.138,1.006-.048.975-.393,1.707-.185a2.33,2.33,0,0,1,2.667.181c-.138,0-.28.212-.109.33.459-.034-.122.725-.591.806-.437.063-.909-.25-1.065.115a8.014,8.014,0,0,0-2.867.477c-1.192.31-2.276,1.155-3.492,1.044-.3-.422-.7-.47-.93-1.141.342-.506.369-1.176.927-1.357-.078-.067-.166-.452.176-.337,0-.091-.084-.112-.082-.218.552-.469.6-1.276,1.3-1.655.247-1.314,1.629-1.858,1.781-3.237.288-.152.489-.431.438-.547a1.481,1.481,0,0,1,.355-.16c-.13-.44.317-.807-.048-1.085-.006-.045.15-.153.2-.173-.173-.254-.747-.313-1.209-.43-.132.287-.4,0-.6.232-.1,0-.213-.053-.221-.112-.48.128-1.269.5-1.435,1.034-.134.393-.511.888-.839.878-.1,0-.188.127-.171.125-.192-.025-.181-.193-.24-.247-.223-.248-.679-.442-.614-.842.394-.5.326-.868.935-1.055.135-.015.007-.2.028-.291.273-.014.907-.143.929-.6.169-.018.13.2.284.2.031-.4.279-.091.409-.271C83.688,173.718,83.69,173.733,83.853,173.791Z" transform="translate(-81.053 -169.001)" fill="#d1d5d5"/>
      <path id="Path_14" data-name="Path 14" d="M152.435,187.127c.1.716.211.659-.261,1.21,1.31,1.161,2.5,1.835,3.8,3.013-.092.207-.319.913-.742.838-1.225-.17-2.652-2.425-3.889-2.563a3.834,3.834,0,0,0-1.256,1.832c-.289.637-.507,1.66-1.148,1.866.083-.024-.462,0-.3.033-.509-.081-.463-.5-.741-.768.464-.489-.054-1.009.517-1.343.045-.172-.122-.138-.107-.276a2.318,2.318,0,0,0,.5-.387c-.025-.058-.158-.029-.245-.034.521-.571.463-1.489,1.224-1.935-.7-1.076-2.276-1.693-2.907-2.776-.287-.09-.554-.41-.313-.648a1.748,1.748,0,0,1,2.189,1.066c.681.456,1.285.982,2,1.42a2.813,2.813,0,0,0,.156-.608c1.131-.137.072-1.462,1.033-1.581-.156-.135.166-1.275.634-1.492.524.065,1.427.148,1.365.564C152.983,185.387,153.452,186.048,152.435,187.127Z" transform="translate(-137.52 -178.346)" fill="#d1d5d5"/>
      <path id="Path_15" data-name="Path 15" d="M217.561,162.033c-.632.023-.606.081-1.166.126a.818.818,0,0,0-.507-.566c.182-.05-.126-.41-.159-.649.7-.152.976-.636,1.334-1.144a3.259,3.259,0,0,0,1.825-2.3c-.64-.658-1.854-.011-2.583.052-.518.223-.449.594-1.166.747a.543.543,0,0,1,.009.559c-.737-.117-1.387-.35-1.435-1.193.639-.463,1.208-.691,1.746-1.143.878.147,1.661-.392,2.217-.346.226.021.625-.068.853-.032,1.018.163,2.331.854,1.444,2.373-.105.6-.941,1.132-1.23,1.769a3.555,3.555,0,0,1,2.223.32c.5.385,1.411.65,1.165,1.222.425.59.127,1.41.165,2.179l-.22.024c-.088,1.842-2.844,4.231-5.454,3.347-.243-.64-1.777-.565-1.579-1.738.37-.055-.107-.276.141-.47.282-.318.036.133.49-.053,0,.106.1.11.1.217.232-.055.166-.291.339-.279.114.079.016.241.242.383a3.514,3.514,0,0,0,.391-.148c.135.228.05.358-.135.514.023.164.183.208.25.321a4.39,4.39,0,0,0,2.451-.507,4.475,4.475,0,0,0,.993-1.5c.35.053.4-.68.516-.98,0,0,.131.077.144.045.307-.382-.541-.8-.236-1.08C220.539,161.363,218.451,161.028,217.561,162.033Z" transform="translate(-195.576 -153.85)" fill="#d1d5d5"/>
      <path id="Path_16" data-name="Path 16" d="M286.639,174.695a2.459,2.459,0,0,1-.015-.847c1.092.079,1.871-.611,2.874-.432.415-.348.915-.2,1.411-.092a5.19,5.19,0,0,1,2.391-.2c.2-.309.784-.16,1.122-.076.068-.007.021-.093.028-.169.235-.041.19.252.469.162.052.13-.168.276-.113.421.122.138.349-.2.411.122-.085.13-.3.184-.293.486-2.289.566-3.762.089-5.579.467,0,.121-.319.171-.235.162C288.479,174.6,287.662,175.024,286.639,174.695Zm9.281.617c-1.854.488-4.406.764-6.175,1.243-.01-.074-.392-.109-.4-.184-.358.266-1.28.048-1.5.465.156.256-1.12.091-.519,1.207.713.317,1.176-.051,1.468-.053.432.392.7-.06,1.38-.195a59,59,0,0,0,6.151-1.165C296.61,176.207,296.2,175.721,295.92,175.312Z" transform="translate(-258.49 -168.572)" fill="#d1d5d5"/>
      <path id="Path_17" data-name="Path 17" d="M368.292,142.176a.667.667,0,0,0,.723-.351c.7-.181,1.278-.184,1.741-.31.12,0,.186.1.276.137.047-.035.034-.125.172-.125.16.165.485.16.679.32.061-.052.049-.142.169-.139a6.03,6.03,0,0,1,1.1,1.017,4.46,4.46,0,0,1-1.62,4.4l.037.268c-.643.433-1.253,1.105-2.022,1.128.2-.007-.222-.113-.372.04a4.942,4.942,0,0,1-3.415-2.115c-.025-.058-.124-.032-.192-.025a7.007,7.007,0,0,1-.964-5.092c.457-.413.331-1.323.79-1.6-.191-.388.458-.534.377-.995a1.114,1.114,0,0,0,.608-.687c.167-.033.239-.132.423-.167,1.018-1.443,3.576-.311,3.775,1.122.031.1.243.019.217.2-.319.171.059.054-.031.4-.226-.021-.45.094-.727.078-.029-.088.036-.11.028-.17-.912-.144-.51-1.2-1.375-1.381-.527.284-1.1.512-1.188,1.083-.675.33-.649,1.131-1.058,1.644.04.041.063.084.15.09-.851.789-.3,2.168-.561,2.878.088.142.25.2.307.361.231-.313.269-.786.839-.878-.015-.1-.1-.11-.1-.216.148-.168.577-.047.417-.212.064-.037.5-.07.265-.316C368.174,142.689,368.146,142.359,368.292,142.176Zm.785,3.808c0,.212-.049.263.122.381-.5.114-.393.633-1.005.669.077.431.409.35.719.361.175-.095.064-.158.258-.24.162.058.008.181.261.153.23.051.066-.265.221-.266.006.045.133.092.2.084a2.749,2.749,0,0,0,1.328-2.052c.222-.009.178-.2.341-.264.167-.654.758-2.081-.4-1.987,0-.106-.1-.1-.158-.149a4.056,4.056,0,0,0-3.407,3.019C367.858,146.343,368.471,146.065,369.077,145.984Z" transform="translate(-325.757 -137.215)" fill="#d1d5d5"/>
    </g>
    <path id="Path_18" data-name="Path 18" d="M338.08,380.624c0,.571-.254,1.033-.567,1.033H323c-.313,0-.567-.463-.567-1.033h0c0-.571.254-1.033.567-1.033h14.516c.313,0,.567.462.567,1.033Z" transform="translate(-252.348 -196.871)" fill="#48b19b"/>
    <path id="Path_19" data-name="Path 19" d="M322.516,381.173a1.7,1.7,0,0,1-.087-.549h0c0-.571.254-1.033.567-1.033a2,2,0,0,0-.152.791c.045.791,1.37.791,1.37.791Z" transform="translate(-252.347 -196.871)" fill="#49a893"/>
    <path id="Path_20" data-name="Path 20" d="M425.542,381.173a1.7,1.7,0,0,0,.087-.549h0c0-.571-.254-1.033-.567-1.033a2,2,0,0,1,.152.791c-.045.791-1.37.791-1.37.791Z" transform="translate(-339.896 -196.871)" fill="#49a893"/>
    <path id="Path_21" data-name="Path 21" d="M346.979,381.32a.144.144,0,0,1-.122.159H334.928a.144.144,0,0,1-.122-.159h0a.144.144,0,0,1,.122-.159h11.929a.144.144,0,0,1,.122.159Z" transform="translate(-263.032 -198.251)" fill="#fff" opacity="0.3"/>
    <g id="Group_24" data-name="Group 24" transform="translate(44.539 186.738)">
      <path id="Path_22" data-name="Path 22" d="M137.41,412.869l-1.805,5.79,5.841-4.23.484-1.56Z" transform="translate(-135.605 -412.869)" fill="#2d404e" opacity="0.2"/>
      <path id="Path_23" data-name="Path 23" d="M334.654,412.869l1.805,5.79-5.84-4.23-.484-1.56Z" transform="translate(-303.539 -412.869)" fill="#2d404e" opacity="0.2"/>
      <rect id="Rectangle_9" data-name="Rectangle 9" width="4.357" height="1.932" transform="translate(14.282)" fill="#2d404e" opacity="0.2"/>
    </g>
    <path id="Path_24" data-name="Path 24" d="M365.353,280.726l3.49,6.255,3.5-1.167Z" transform="translate(-289.403 -109.941)" fill="#253744" opacity="0.7"/>
    <g id="Group_25" data-name="Group 25" transform="translate(75.941 169.572)">
      <path id="Path_25" data-name="Path 25" d="M372.162,277.456a.45.45,0,0,1-.58.011l-6.177-5.231a.333.333,0,0,1-.012-.512l1.009-.929a.45.45,0,0,1,.58-.011l6.177,5.231a.333.333,0,0,1,.012.512Z" transform="translate(-365.279 -270.682)" fill="#d1d5d5"/>
      <path id="Path_26" data-name="Path 26" d="M372.162,277.462l.118-.108-6.608-5.248a3.209,3.209,0,0,0,1.156-1.4.448.448,0,0,0-.425.092l-1.009.929a.333.333,0,0,0,.012.512l6.177,5.231A.45.45,0,0,0,372.162,277.462Z" transform="translate(-365.279 -270.689)" fill="#c6cbcb"/>
    </g>
  </g>
</svg>
