<svg xmlns="http://www.w3.org/2000/svg" width="70" height="70" viewBox="0 0 70 70">
  <g id="Group_335" data-name="Group 335" transform="translate(-26 -186)">
    <path id="Path_49" data-name="Path 49" d="M82.6,66.17a3.877,3.877,0,0,1-3.908,3.846H31.015a3.877,3.877,0,0,1-3.908-3.846V3.865A3.877,3.877,0,0,1,31.015.019H78.694A3.877,3.877,0,0,1,82.6,3.865V66.17Z" transform="translate(2.6 185.984)" fill="#2d404e"/>
    <path id="Path_50" data-name="Path 50" d="M80.361,64.385a3.783,3.783,0,0,1-3.822,3.743H29.914a3.783,3.783,0,0,1-3.822-3.743V3.744A3.783,3.783,0,0,1,29.914,0H76.539a3.783,3.783,0,0,1,3.822,3.743Z" transform="translate(3.474 185.999)" fill="#e2e5e7"/>
    <path id="Path_51" data-name="Path 51" d="M241.208,369.922l25-9.716v8.6Z" transform="translate(-182.23 -124.959)" fill="#c6cbcb" opacity="0.7"/>
    <g id="Group_33" data-name="Group 33" transform="translate(26 196.575)">
      <g id="Group_28" data-name="Group 28">
        <circle id="Ellipse_2" data-name="Ellipse 2" cx="3.516" cy="3.516" r="3.516" transform="translate(5.243)" fill="#c6cbcb"/>
        <circle id="Ellipse_3" data-name="Ellipse 3" cx="2.96" cy="2.96" r="2.96" transform="translate(5.798 0.555)" fill="#2d404e"/>
        <circle id="Ellipse_4" data-name="Ellipse 4" cx="2.062" cy="2.062" r="2.062" transform="translate(6.594 1.523)" fill="#253744"/>
        <g id="Group_27" data-name="Group 27" transform="translate(0 1.912)">
          <path id="Path_52" data-name="Path 52" d="M9.868,92.942a1.6,1.6,0,0,1-1.6,1.6H1.6a1.6,1.6,0,0,1-1.6-1.6H0a1.6,1.6,0,0,1,1.6-1.6H8.265a1.6,1.6,0,0,1,1.6,1.6Z" transform="translate(0 -91.338)" fill="#586a73"/>
          <path id="Path_53" data-name="Path 53" d="M4.3,94.182a1.6,1.6,0,0,0,1.016.363h6.661a1.6,1.6,0,0,0,1.6-1.6h0a1.6,1.6,0,0,0-1.6-1.6,2,2,0,0,1,.8,1.372c.106.968-1.035,1.49-1.9,1.49S4.3,94.182,4.3,94.182Z" transform="translate(-3.71 -91.338)" fill="#2d404e" opacity="0.5"/>
        </g>
        <path id="Path_54" data-name="Path 54" d="M10.693,94.1H6.252c-.948,0-1.78.393-1.954,1.087a2.847,2.847,0,0,1,2.162-.694h4.233V94.1Z" transform="translate(-3.71 -91.811)" fill="#c6cbcb" opacity="0.3"/>
      </g>
      <g id="Group_30" data-name="Group 30" transform="translate(0 14.551)">
        <circle id="Ellipse_5" data-name="Ellipse 5" cx="3.516" cy="3.516" r="3.516" transform="translate(5.243)" fill="#c6cbcb"/>
        <circle id="Ellipse_6" data-name="Ellipse 6" cx="2.96" cy="2.96" r="2.96" transform="translate(5.798 0.555)" fill="#2d404e"/>
        <circle id="Ellipse_7" data-name="Ellipse 7" cx="2.062" cy="2.062" r="2.062" transform="translate(6.594 1.523)" fill="#253744"/>
        <g id="Group_29" data-name="Group 29" transform="translate(0 1.912)">
          <path id="Path_55" data-name="Path 55" d="M9.868,199.372a1.6,1.6,0,0,1-1.6,1.6H1.6a1.6,1.6,0,0,1-1.6-1.6H0a1.6,1.6,0,0,1,1.6-1.6H8.265a1.6,1.6,0,0,1,1.6,1.6Z" transform="translate(0 -197.768)" fill="#586a73"/>
          <path id="Path_56" data-name="Path 56" d="M4.3,200.611a1.6,1.6,0,0,0,1.016.363h6.661a1.6,1.6,0,0,0,1.6-1.6h0a1.6,1.6,0,0,0-1.6-1.6,2,2,0,0,1,.8,1.372c.106.968-1.035,1.49-1.9,1.49S4.3,200.611,4.3,200.611Z" transform="translate(-3.71 -197.767)" fill="#2d404e" opacity="0.5"/>
        </g>
        <path id="Path_57" data-name="Path 57" d="M10.693,200.53H6.252c-.948,0-1.78.393-1.954,1.087a2.847,2.847,0,0,1,2.162-.694h4.233v-.393Z" transform="translate(-3.71 -198.24)" fill="#c6cbcb" opacity="0.3"/>
      </g>
      <g id="Group_32" data-name="Group 32" transform="translate(0 29.102)">
        <circle id="Ellipse_8" data-name="Ellipse 8" cx="3.516" cy="3.516" r="3.516" transform="translate(5.243)" fill="#c6cbcb"/>
        <circle id="Ellipse_9" data-name="Ellipse 9" cx="2.96" cy="2.96" r="2.96" transform="translate(5.798 0.555)" fill="#2d404e"/>
        <circle id="Ellipse_10" data-name="Ellipse 10" cx="2.062" cy="2.062" r="2.062" transform="translate(6.594 1.523)" fill="#253744"/>
        <g id="Group_31" data-name="Group 31" transform="translate(0 1.912)">
          <path id="Path_58" data-name="Path 58" d="M9.868,305.8a1.6,1.6,0,0,1-1.6,1.6H1.6A1.6,1.6,0,0,1,0,305.8H0a1.6,1.6,0,0,1,1.6-1.6H8.265a1.6,1.6,0,0,1,1.6,1.6Z" transform="translate(0 -304.197)" fill="#586a73"/>
          <path id="Path_59" data-name="Path 59" d="M4.3,307.04a1.6,1.6,0,0,0,1.016.363h6.661a1.6,1.6,0,0,0,1.6-1.6h0a1.6,1.6,0,0,0-1.6-1.6,2,2,0,0,1,.8,1.372c.106.968-1.035,1.49-1.9,1.49S4.3,307.04,4.3,307.04Z" transform="translate(-3.71 -304.196)" fill="#2d404e" opacity="0.5"/>
        </g>
        <path id="Path_60" data-name="Path 60" d="M10.693,306.96H6.252c-.948,0-1.78.393-1.954,1.087a2.848,2.848,0,0,1,2.162-.694h4.233v-.393Z" transform="translate(-3.71 -304.67)" fill="#c6cbcb" opacity="0.3"/>
      </g>
    </g>
    <path id="Path_61" data-name="Path 61" d="M306.73,210.472l-24.077,23.355,2.115,2.436L309.824,213.7Z" transform="translate(-218.009 4.303)" fill="#eb8923"/>
    <path id="Path_62" data-name="Path 62" d="M268.176,210.787l-2.293-1.682,24.735-25.322,1.635,3.649Z" transform="translate(-203.532 27.343)" fill="#ed9e43"/>
    <path id="Path_63" data-name="Path 63" d="M298.125,256.649l.988,2.586,28.253-23.8-4.185-1.352Z" transform="translate(-231.367 -16.083)" fill="#d27228"/>
    <path id="Path_64" data-name="Path 64" d="M446.8,183.783l1.635,3.649,3.094,3.229,4.185,1.352-1.264-3.615-3.421-3.513Z" transform="translate(-359.717 27.343)" fill="#f2b643"/>
    <path id="Path_65" data-name="Path 65" d="M244.116,369s4.851,1.982,5.4,6.7c0,0-8.105,2.812-8.769,1.811S244.116,369,244.116,369Z" transform="translate(-181.765 -132.549)" fill="#f2b643"/>
    <path id="Path_66" data-name="Path 66" d="M240.743,408.67c.292.441,2.029.142,3.88-.331l-2.915-3.249C241,406.735,240.469,408.257,240.743,408.67Z" transform="translate(-181.765 -163.707)" fill="#eb8923"/>
    <path id="Path_67" data-name="Path 67" d="M356.42,3.7A3.763,3.763,0,0,0,352.6,0h-6.728L356.42,8.948V3.7Z" transform="translate(-272.585 185.999)" fill="#d1d5d5"/>
    <g id="Group_34" data-name="Group 34" transform="translate(40.571 201.676)">
      <path id="Path_68" data-name="Path 68" d="M108.827,140.717l-.078-.016-.037-.063c-.036-.041-.061-.083-.109-.134a3.491,3.491,0,0,1-.645-1.135,4.3,4.3,0,0,1-.723-1.161c-.025-.042-.051-.095-.077-.148a4.6,4.6,0,0,1-.39-1.253,8.026,8.026,0,0,1-.159-1.38,2.2,2.2,0,0,1,.011-.3,1.254,1.254,0,0,0-.012-.448l-.027-.064.028-.068a.839.839,0,0,0,.057-.41l0-.088.061-.059a.807.807,0,0,0,.087-.149,1.16,1.16,0,0,1,.078-.126,1.683,1.683,0,0,1,.122-.7c.035-.123.079-.258.111-.414l.007-.055.04-.047a.246.246,0,0,1,.168-.1.718.718,0,0,0,.06-.224,1.293,1.293,0,0,1,.087-.292.664.664,0,0,1,.161-.188c.01-.012.031-.024.051-.048a.312.312,0,0,1,.028-.21h.011a.372.372,0,0,1,.134-.109.6.6,0,0,1,.057-.256.408.408,0,0,1,.123-.108c.011,0,.021-.013.032-.013a1.2,1.2,0,0,1,.089-.127.883.883,0,0,1,.666-.467.3.3,0,0,1,.1,0l.087-.007.06.072a.454.454,0,0,0,.162.119.911.911,0,0,1,.316.261l.062.094-.047.1c-.055.136-.072.214-.09.259a.828.828,0,0,1-.194.332l-.04.047-.054.015a.163.163,0,0,1-.076.017.3.3,0,0,1-.1,0,1.675,1.675,0,0,0-.2.355,2.132,2.132,0,0,1-.193.343.393.393,0,0,1-.026.243l-.019.034-.041.036a1.9,1.9,0,0,0-.3.669,3.923,3.923,0,0,1-.267.667c-.012.132-.025.254-.026.375a4.019,4.019,0,0,1-.1.741,6.734,6.734,0,0,0,.75,2.683l.014.032,0,.022a4.429,4.429,0,0,0,.419.9,7.768,7.768,0,0,1,.362.729.356.356,0,0,1,.157.185.939.939,0,0,1,.073.247c0,.044.017.086.021.13l.011.142-.113.1a.955.955,0,0,0-.059.092.522.522,0,0,1-.666.324Z" transform="translate(-106.58 -128.212)" fill="#eb8923"/>
      <path id="Path_69" data-name="Path 69" d="M155.022,135.3l-.043.014-.044-.008a.362.362,0,0,1-.244-.19.481.481,0,0,1-.1-.025l-.158-.065.01-.154a.269.269,0,0,0-.014-.185c-.039-.084-.146-.044-.146-.044l-.023-.152a7.211,7.211,0,0,1,.407-2.157,3.607,3.607,0,0,0,.142-.591,4.127,4.127,0,0,1,.253-.852,1.618,1.618,0,0,1,.117-.2.846.846,0,0,0,.091-.106,2.124,2.124,0,0,1,.35-.728c.126-.218.263-.436.232-.555a.381.381,0,0,1,.006-.208,1.344,1.344,0,0,1,.15-.044c.172-.046.359-.323.506-.553a.319.319,0,0,1-.1.029.445.445,0,0,1-.133-.023c-.129.032-.269.064-.388.084a1.035,1.035,0,0,0-.438.154l-.117.053-.125-.056a.252.252,0,0,0-.189-.04.829.829,0,0,0-.152.022c-.064.016-.13.021-.195.037a.353.353,0,0,1-.122.13l-.01.012-.022,0a1.264,1.264,0,0,1-.431.1,2.147,2.147,0,0,1-.428-.011s-.22-.016-.256-.058a.338.338,0,0,0,.081-.236.01.01,0,0,1,.01-.011.518.518,0,0,1-.01-.131c-.04.047-.122.119-.25-.124l-.024-.031,0-.032c0-.044-.017-.076-.02-.119a2.954,2.954,0,0,1-.089-.738l.069-.246.213.061a1.075,1.075,0,0,0,.39.091c.067.017.181.074.259.09-.037-.063-.006-.076.014-.1l.125-.086.106.091a1.09,1.09,0,0,0,.112.035s-.062-.094.066-.29a.223.223,0,0,0,.185.128l.1,0a.118.118,0,0,1,.127.078c.006-.066.091-.095.091-.095.033,0,.065-.016.086-.017a.581.581,0,0,1,.189.03.033.033,0,0,0,.023.009h.011l.172-.046.051-.048.157.054a.447.447,0,0,1,.078.016.832.832,0,0,1,.593-.275,1.027,1.027,0,0,1,.331.03.538.538,0,0,1,.2-.059c.022,0,.045.008.066.006l.065-.005.043,0,.059-.092.1,0a.213.213,0,0,1,.169.064l.065-.005a1.05,1.05,0,0,1,.2.018c.044,0,.077.005.1,0h.011s.155.021.206-.027a.344.344,0,0,0,.078.169,1.11,1.11,0,0,0,.317.425,2.27,2.27,0,0,1,.18.206l.026.053,0,.054c.008.394-.33.7-.608.944-.02.024-.042.025-.062.049a11.523,11.523,0,0,1-.673,1.245,5.891,5.891,0,0,0-.944,2.3l-.015.088-.062.049a.891.891,0,0,0-.206.465,1.332,1.332,0,0,1-.251.6c.03.107.072.225.1.31l.016.065-.03.046a.381.381,0,0,1-.066.136,3.011,3.011,0,0,1,.008.536c-.029.342-.144.559-.346.64a.633.633,0,0,1-.192.069.624.624,0,0,0-.018-.1l-.111-.014C155.053,135.28,155.054,135.3,155.022,135.3Z" transform="translate(-146.744 -125.205)" fill="#eb8923"/>
      <path id="Path_70" data-name="Path 70" d="M221.138,156.621h-.132l-.053-.128a1,1,0,0,1-.036-.622.867.867,0,0,0,.017-.209l-.03-.107.07-.082a1.765,1.765,0,0,1,1.015-.351,2.642,2.642,0,0,0,.573-.109l.042-.025.044.008.1.025a.414.414,0,0,0,.111.024l.081-.083.11,0a1.724,1.724,0,0,0,.331.03c.2.007.3.011.368.082l.024.031.013.021c.012.021.024.031.025.042l.167.042.057.171c-.008.033,0,.054.03.107a.441.441,0,0,1,.1.222.519.519,0,0,1-.257.512.984.984,0,0,1-.472.134,2.366,2.366,0,0,1-.439-.01l-.033,0a8.633,8.633,0,0,1-1.69.259Z" transform="translate(-205.257 -149.452)" fill="#eb8923"/>
      <path id="Path_71" data-name="Path 71" d="M270.111,126.992l-.09-.026-.03-.107c-.029-.1-.167-.185-.306-.284a1.287,1.287,0,0,1-.454-.349.807.807,0,0,1-.151-.7l.032-.156.022,0c0-.011,0-.022,0-.033a.28.28,0,0,1,.113-.238.326.326,0,0,1,.219-.148.2.2,0,0,1,.158.065l.172.1.1-.128c.01-.011.021-.012.043-.014s.033.008.044.008l.066.006.048.051a.287.287,0,0,1,.111.167c0-.011.031-.024.064-.027l.18-.079.079.18a.44.44,0,0,1-.03.474v.011a1.452,1.452,0,0,0,.364.027,2.347,2.347,0,0,0,.611-.178,1.528,1.528,0,0,1,.308-.122,3.234,3.234,0,0,0,.577-.92l.069-.1.108-.019a.92.92,0,0,0,.086-.313c.028-.068.044-.146.072-.2v-.011a.178.178,0,0,1,.1-.1.5.5,0,0,1-.063-.105.9.9,0,0,1-.105-.233.332.332,0,0,1,0-.23.992.992,0,0,0-.854-.286,1,1,0,0,0-.678.314l-.06.07-.1.008a2.123,2.123,0,0,0-.251.008.609.609,0,0,0-.141.022l-.24.018-.076.006-.166-.02-.046-.172a.321.321,0,0,0-.193-.237l-.168-.2a.414.414,0,0,0,.081-.083c.019-.045-.016-.075-.017-.086a.706.706,0,0,1-.074-.257l-.014-.185.184-.036c.3-.056.451-.264.648-.564.03-.035.05-.07.08-.1l.018-.045.042-.025a2.308,2.308,0,0,0,.723-.591,1.565,1.565,0,0,0,.343-.683.5.5,0,0,0-.38-.092,2.52,2.52,0,0,0-.475.1,2.427,2.427,0,0,1-.442.088.643.643,0,0,0-.185.157,1,1,0,0,1-.352.268.774.774,0,0,1-.065.3l-.087.149-.165-.009a1.6,1.6,0,0,1-.668-.289.954.954,0,0,1-.322-.776l0-.1.071-.071a4.042,4.042,0,0,1,.544-.337,3.154,3.154,0,0,0,.551-.392l.083-.061.1.014a1.028,1.028,0,0,0,.276.023,3.805,3.805,0,0,0,.485-.1,2.126,2.126,0,0,1,.431-.1.534.534,0,0,1,.143,0,1.079,1.079,0,0,0,.2,0,1.225,1.225,0,0,1,.352.017,1.631,1.631,0,0,1,.61.25,1.149,1.149,0,0,1,.479.533,1.274,1.274,0,0,1-.142,1.162,1.862,1.862,0,0,1-.45.713c-.05.059-.112.118-.172.188a1.65,1.65,0,0,1,1.111.354c.07.05.152.12.256.2a1.366,1.366,0,0,1,.376.333.479.479,0,0,1,.113.474,1.907,1.907,0,0,1,.057,1.048,3.535,3.535,0,0,0-.041.474l-.032.156-.128.043a2.8,2.8,0,0,1-.843,1.466,3.712,3.712,0,0,1-.821.588,2.775,2.775,0,0,1-.988.272A2.075,2.075,0,0,1,270.111,126.992Z" transform="translate(-246.39 -118.311)" fill="#eb8923"/>
      <path id="Path_72" data-name="Path 72" d="M333.208,124.6a.726.726,0,0,1,.094-.785,5.788,5.788,0,0,1,.166-.56c.027-.079.064-.169.09-.259l.01-.023a3.761,3.761,0,0,0,.27-.919l0-.032.009-.023a1.531,1.531,0,0,1,.107-.183A.5.5,0,0,0,334,121.7a1.719,1.719,0,0,0,.069-.4c.016-.078.02-.166.036-.244a2.784,2.784,0,0,0,.042-.321,2.414,2.414,0,0,1,.1-.446,1.415,1.415,0,0,0,.066-.575c-.016-.065-.021-.13-.036-.194a13.505,13.505,0,0,0-.351-1.606,4.286,4.286,0,0,0-1.374-1.792c-.055-.007-.135-.045-.288-.186a2.765,2.765,0,0,1-.339-.424l-.029-.1.025-.1a.931.931,0,0,0,.034-.134.539.539,0,0,1,.432-.515h.011l.1-.008a.9.9,0,0,1,.728.351,1.369,1.369,0,0,0,.13.132,2.036,2.036,0,0,1,.159.218c.026.053.062.1.076.137.022.009.056.018.079.027a.363.363,0,0,1,.185.128c0,.011.024.031.037.063a6.5,6.5,0,0,1,1.373,2.658v.011a.853.853,0,0,0,.106.386l.037.063-.016.078a.22.22,0,0,0,.023.163,1.529,1.529,0,0,1,.063.258,1.416,1.416,0,0,0,.026.206c.078.6.108.846-.013.987v.011a2.762,2.762,0,0,0,0,.285,2.537,2.537,0,0,1-.027.517.328.328,0,0,0-.014.111,2.062,2.062,0,0,1-.061.355.431.431,0,0,1-.153.285c-.034.134-.075.312-.108.458s-.057.256-.083.346l-.055.147-.161.045c0,.011-.008.033-.007.044a1.318,1.318,0,0,1-.1.292,3.387,3.387,0,0,1-.467,1.219c-.029.057-.057.114-.076.159l-.039.069-.075.027a.688.688,0,0,1-.2.048A.675.675,0,0,1,333.208,124.6Z" transform="translate(-301.086 -114.66)" fill="#eb8923"/>
      <path id="Path_73" data-name="Path 73" d="M155.528,243.081a.6.6,0,0,0-.09-.179l-.12-.144.123-.108a.488.488,0,0,0,.1-.359.707.707,0,0,1,.182-.5.152.152,0,0,1,.036-.255.117.117,0,0,0,.054-.157l.122-.13a1.851,1.851,0,0,0,.281-.492,2.055,2.055,0,0,1,.449-.724,4.035,4.035,0,0,0-.725-.745,3.929,3.929,0,0,1-.91-1.016.608.608,0,0,1-.289-.351.391.391,0,0,1,.124-.393l.04-.047.065-.016.251-.019a1.187,1.187,0,0,1,1.288.8.652.652,0,0,0,.05.084,4.655,4.655,0,0,1,.5.422c.141.121.292.241.434.373a.42.42,0,0,0,.046-.266h.164c.174-.013.194-.048.213-.367a.949.949,0,0,1,.069-.389.546.546,0,0,1,.222-.247c.008-.044.016-.078.025-.111a1.444,1.444,0,0,1,.587-.932l.064-.027.067.017c.011,0,.034.008.044.008a2.267,2.267,0,0,1,.592.153c.394.135.422.363.4.507l-.016.078-.052.037a1.382,1.382,0,0,0-.452.691,2.393,2.393,0,0,1-.531.95l.008.109a.628.628,0,0,1-.151.614,9.2,9.2,0,0,0,1,.921c.388.354.786.686,1.191,1.116l.1.1-.055.136a.159.159,0,0,0-.03.046c-.095.193-.273.591-.611.616a.442.442,0,0,1-.121,0,2.845,2.845,0,0,1-1.279-.977,3.337,3.337,0,0,0-1.03-.865,2.384,2.384,0,0,0-.62.935,1.608,1.608,0,0,0-.087.149c-.047.1-.093.215-.149.351-.177.408-.372.883-.788,1.024a.824.824,0,0,1-.328.014A.648.648,0,0,1,155.528,243.081Z" transform="translate(-148.15 -220.093)" fill="#eb8923"/>
      <path id="Path_74" data-name="Path 74" d="M223.616,212.371a1.066,1.066,0,0,1,.063.432.521.521,0,0,1-.152.373,3.856,3.856,0,0,1-.678,2.4,2.557,2.557,0,0,1-.893,1.74.948.948,0,0,1-.213.574,1.538,1.538,0,0,1-.4.346,1.68,1.68,0,0,0-.141.131l-.083.1-.136,0c-.65-.026-1.354-.169-1.545-1.1l-.026-.149.127-.115a8.1,8.1,0,0,0,1.787-3.073,1.417,1.417,0,0,1-.076-.205c-.073-.175.153-.177.268-.638a1.4,1.4,0,0,1-.574.375.32.32,0,0,1-.1.264l-.1.023c-.176.059-.41.167-.445.29l-.047.169a1.051,1.051,0,0,1-.329.025.666.666,0,0,1-.438.184,1.547,1.547,0,0,1-.394-.031c-.06,0-.121-.006-.166,0a.015.015,0,0,0-.014.016c-.029.017-.057.049-.086.067a.329.329,0,0,1-.2.091l-.03,0a1.715,1.715,0,0,1-1.085-.6,1.678,1.678,0,0,0-.481-.386l-.157-.094-.014-.18a3.236,3.236,0,0,0-.237-1.143,2.092,2.092,0,0,1-.11-1.649,2.447,2.447,0,0,1,.41-1.749,4.653,4.653,0,0,1,1.118-1.169,3.525,3.525,0,0,1,1.292-.64,3.74,3.74,0,0,1,.772-.164,1.684,1.684,0,0,1,1.183.3.45.45,0,0,1,.148-.027l.06,0,.226,0,.047.223c0,.045.047.222.431.525a3.818,3.818,0,0,0,.758.455l.14.065.011.15a.943.943,0,0,1,0,.241c.039.117.233.088.233.088l-.083.293a2.153,2.153,0,0,0,.158,1.284,7.684,7.684,0,0,1,.213.828,1.939,1.939,0,0,1-.035.53,1.238,1.238,0,0,0-.024.288A1.731,1.731,0,0,0,223.616,212.371Zm-2.6-3.45a.608.608,0,0,0-.354-.29,1.062,1.062,0,0,0-.211,0,1.851,1.851,0,0,0-.85.32c-.058.035-.13.07-.188.1a5.6,5.6,0,0,0-.518.326,5.1,5.1,0,0,0-.268.442,1.451,1.451,0,0,1-.322.521,3.451,3.451,0,0,0,.437,2.2.641.641,0,0,0,.407.211,4.9,4.9,0,0,0,1.6-1.387c.152-.177.29-.353.456-.547A2.868,2.868,0,0,0,221.02,208.92Z" transform="translate(-201.362 -194.266)" fill="#eb8923"/>
      <path id="Path_75" data-name="Path 75" d="M291.95,230.189a9.6,9.6,0,0,0-.986,0,2.61,2.61,0,0,0-.293.033.472.472,0,0,1-.18.09l-.051.048-.078-.016a.041.041,0,0,0-.034-.008.678.678,0,0,0-.23,0l-.185.014a1.514,1.514,0,0,1-.228.028,1.652,1.652,0,0,1-.875-.131l-.112-.036-.019-.108a1.266,1.266,0,0,1,.007-.483c.008-.044.014-.1.021-.155l.028-.21.2.018a.845.845,0,0,0,.241,0,2.369,2.369,0,0,0,.539-.117,2.546,2.546,0,0,1,.583-.121,1.479,1.479,0,0,1,.319.009.845.845,0,0,1,.364-.115,1.479,1.479,0,0,1,.544.09,2.218,2.218,0,0,1,.551-.107,3.834,3.834,0,0,1,.835.036.547.547,0,0,1,.277-.1,1.07,1.07,0,0,1,.32.031l.029-.057a.309.309,0,0,1,.425.121c.056.018.1-.029.131-.01.067.017.09.179.09.179a.4.4,0,0,0,.173.4l.017.075-.05.07c-.04.047-.081.083-.112.118s-.052.037-.048.091l-.009.165-.151.033a5.576,5.576,0,0,1-.845.129A10.092,10.092,0,0,1,291.95,230.189Zm-1.9,2.707c-.01.012-.032.013-.054.015a1.485,1.485,0,0,1-.335.069.864.864,0,0,1-.546-.123l-.068-.039-.026-.053a.841.841,0,0,1-.049-.654.718.718,0,0,1,.4-.337l.01-.012a.657.657,0,0,1,.591-.3l.087-.007.087-.006a.826.826,0,0,0,.227-.039l.149-.055.171.1a.221.221,0,0,1,.091.037,18.37,18.37,0,0,1,1.838-.325c.639-.1,1.311-.2,1.86-.327l.163-.023.063.116c.013.032.038.074.052.106a.944.944,0,0,1,.154,1.029l-.05.059-.065.016a15.664,15.664,0,0,1-2.637.484c-.423.054-.825.106-1.182.166a1.508,1.508,0,0,0-.31.1.811.811,0,0,1-.309.111A.431.431,0,0,1,290.051,232.9Z" transform="translate(-263.765 -213.177)" fill="#eb8923"/>
    </g>
    <path id="Path_76" data-name="Path 76" d="M449.167,187.432l-.574-2.652,1.165-.227-2.955-.77,1.635,3.649,3.094,3.229Z" transform="translate(-359.717 27.343)" fill="#d89932"/>
    <path id="Path_77" data-name="Path 77" d="M359.371,61.469l8.7,2.91V62Z" transform="translate(-284.239 132.935)" fill="#c6cbcb"/>
    <path id="Path_78" data-name="Path 78" d="M345.871,5.247a3.762,3.762,0,0,0,3.822,3.7h6.727L345.871,0Z" transform="translate(-272.585 186)" fill="#586a73"/>
    <path id="Path_79" data-name="Path 79" d="M262.6,430.116l-.289.065Z" transform="translate(-200.448 -185.311)" fill="#d89932" opacity="0.4"/>
    <path id="Path_80" data-name="Path 80" d="M260.161,430.68l-.28.06Z" transform="translate(-198.35 -185.798)" fill="#d89932" opacity="0.4"/>
    <path id="Path_81" data-name="Path 81" d="M255.659,431.624l-.257.046Z" transform="translate(-194.484 -186.613)" fill="#d89932" opacity="0.4"/>
    <path id="Path_82" data-name="Path 82" d="M257.778,431.186l-.277.054C257.591,431.224,257.684,431.205,257.778,431.186Z" transform="translate(-196.296 -186.235)" fill="#d89932" opacity="0.4"/>
    <path id="Path_83" data-name="Path 83" d="M253.59,432c-.085.014-.167.027-.248.038Z" transform="translate(-192.705 -186.936)" fill="#d89932" opacity="0.4"/>
    <path id="Path_84" data-name="Path 84" d="M244.937,432.761q-.085,0-.16-.011C244.827,432.755,244.88,432.759,244.937,432.761Z" transform="translate(-185.312 -187.585)" fill="#d89932" opacity="0.4"/>
    <path id="Path_85" data-name="Path 85" d="M241.838,431.884a.5.5,0,0,0,.079.042.474.474,0,0,1-.077-.043Z" transform="translate(-182.774 -186.837)" fill="#d89932" opacity="0.4"/>
    <path id="Path_86" data-name="Path 86" d="M243.724,432.587c-.049-.006-.094-.014-.137-.023C243.63,432.573,243.675,432.581,243.724,432.587Z" transform="translate(-184.284 -187.425)" fill="#d89932" opacity="0.4"/>
    <path id="Path_87" data-name="Path 87" d="M242.688,432.3a.787.787,0,0,1-.111-.035A.787.787,0,0,0,242.688,432.3Z" transform="translate(-183.412 -187.165)" fill="#d89932" opacity="0.4"/>
    <path id="Path_88" data-name="Path 88" d="M265.085,429.5l-.306.073Z" transform="translate(-202.58 -184.778)" fill="#d89932" opacity="0.4"/>
    <path id="Path_89" data-name="Path 89" d="M249.625,432.585c-.073.008-.143.015-.211.02C249.482,432.6,249.553,432.593,249.625,432.585Z" transform="translate(-189.314 -187.443)" fill="#d89932" opacity="0.4"/>
    <path id="Path_90" data-name="Path 90" d="M262.642,402.994c2.438-.6,5.221-1.563,5.221-1.563a7.191,7.191,0,0,0-.835-2.628l-5.1,2.941,1.048,1.168Z" transform="translate(-200.116 -158.279)" fill="#d89932" opacity="0.4"/>
    <path id="Path_91" data-name="Path 91" d="M246.256,432.836c-.063,0-.125,0-.182,0C246.131,432.838,246.193,432.838,246.256,432.836Z" transform="translate(-186.431 -187.66)" fill="#d89932" opacity="0.4"/>
    <path id="Path_92" data-name="Path 92" d="M247.84,432.754c-.068,0-.135.009-.2.011C247.705,432.763,247.772,432.759,247.84,432.754Z" transform="translate(-187.785 -187.589)" fill="#d89932" opacity="0.4"/>
    <path id="Path_93" data-name="Path 93" d="M251.554,432.331c-.078.011-.154.02-.227.029C251.4,432.351,251.476,432.342,251.554,432.331Z" transform="translate(-190.966 -187.223)" fill="#d89932" opacity="0.4"/>
    <path id="Path_94" data-name="Path 94" d="M247.439,432.832h0Z" transform="translate(-187.582 -187.656)" fill="#eb8923"/>
    <path id="Path_95" data-name="Path 95" d="M242.436,432.206l-.022-.009Z" transform="translate(-183.271 -187.108)" fill="#eb8923"/>
    <path id="Path_96" data-name="Path 96" d="M245.964,432.833h0Z" transform="translate(-186.322 -187.656)" fill="#eb8923"/>
    <path id="Path_97" data-name="Path 97" d="M243.416,432.526l-.027-.006Z" transform="translate(-184.114 -187.387)" fill="#eb8923"/>
    <path id="Path_98" data-name="Path 98" d="M244.615,432.735l-.026,0Z" transform="translate(-185.149 -187.571)" fill="#eb8923"/>
    <path id="Path_99" data-name="Path 99" d="M261.984,430.6l-.052.011Z" transform="translate(-200.122 -185.726)" fill="#eb8923"/>
    <path id="Path_100" data-name="Path 100" d="M257.314,431.585l-.029.005Z" transform="translate(-196.109 -186.58)" fill="#eb8923"/>
    <path id="Path_101" data-name="Path 101" d="M251.009,432.543l-.05.006Z" transform="translate(-190.648 -187.407)" fill="#eb8923"/>
    <path id="Path_102" data-name="Path 102" d="M255.193,431.957l-.033.006Z" transform="translate(-194.275 -186.901)" fill="#eb8923"/>
    <path id="Path_103" data-name="Path 103" d="M259.575,431.115l-.049.01Z" transform="translate(-198.045 -186.174)" fill="#eb8923"/>
    <path id="Path_104" data-name="Path 104" d="M267.037,429.462l-.019,0Z" transform="translate(-204.512 -184.747)" fill="#eb8923"/>
    <path id="Path_105" data-name="Path 105" d="M264.473,430.033l-.049.011Z" transform="translate(-202.273 -185.24)" fill="#eb8923"/>
    <path id="Path_106" data-name="Path 106" d="M249.134,432.73l-.044,0Z" transform="translate(-189.034 -187.568)" fill="#eb8923"/>
    <path id="Path_107" data-name="Path 107" d="M253.037,432.28l-.048.007Z" transform="translate(-192.401 -187.179)" fill="#eb8923"/>
    <path id="Path_108" data-name="Path 108" d="M242.642,422.025c.063,0,.13-.006.2-.011l.044,0c.068-.005.139-.012.211-.02l.05-.006q.111-.013.227-.029l.048-.007.248-.039.033-.006.257-.046.029-.005.277-.054.049-.01.28-.06.052-.012.289-.065.049-.011.306-.073.019,0,.332-.083-1.048-1.168-2.745,1.582a.476.476,0,0,0,.077.043l.022.009a.775.775,0,0,0,.111.035l.027.006c.043.009.088.017.137.023l.026,0q.075.008.16.011h.017c.057,0,.119,0,.182,0Z" transform="translate(-182.785 -176.849)" fill="#d27228"/>
  </g>
</svg>
