<svg xmlns="http://www.w3.org/2000/svg" width="70" height="64.4" viewBox="0 0 70 64.4">
  <g id="Group_337" data-name="Group 337" transform="translate(-26 -238)">
    <path id="Path_37" data-name="Path 37" d="M69.655,2.59A1.966,1.966,0,0,0,67.668.778L39.706,0a2.162,2.162,0,0,0-1.52.553L3.672,32.324a9.443,9.443,0,0,0,0,14.121L19.992,61.467a11.569,11.569,0,0,0,15.4,0L69.906,29.7a1.784,1.784,0,0,0,.592-1.37ZM56.173,18.481a4.39,4.39,0,0,1-5.8,0,3.507,3.507,0,0,1,0-5.285,4.391,4.391,0,0,1,5.8,0A3.507,3.507,0,0,1,56.173,18.481Zm0,0" transform="translate(25.501 237.998)" fill="#0be7d5"/>
    <path id="Path_38" data-name="Path 38" d="M139.3,11.793l-12.948,11.8a3.5,3.5,0,0,1-.089,5.2,4.394,4.394,0,0,1-5.707.082l-38.741,35.3,8.267,7.609a11.569,11.569,0,0,0,15.4,0l34.514-31.769a1.784,1.784,0,0,0,.592-1.37L139.742,12.9a1.764,1.764,0,0,0-.445-1.105Zm0,0" transform="translate(-44.586 227.69)" fill="#00d4b9"/>
    <path id="Path_39" data-name="Path 39" d="M201.16,196.576l-.917-.835a5.111,5.111,0,0,0-.426-7.283,6.416,6.416,0,0,0-8.467,0l-2,1.823a2.02,2.02,0,0,1-2.666,0,1.612,1.612,0,0,1,0-2.429l3.386-3.085a1.753,1.753,0,0,0,0-2.642,2.194,2.194,0,0,0-2.9,0l-.935.852-.893-.813a2.2,2.2,0,0,0-2.9,0,1.753,1.753,0,0,0,0,2.642l.916.835a5.121,5.121,0,0,0-1.328,3.426,5.188,5.188,0,0,0,1.754,3.857,6.415,6.415,0,0,0,8.467,0l2-1.823a2.02,2.02,0,0,1,2.666,0,1.614,1.614,0,0,1,0,2.429l-3.927,3.578a1.753,1.753,0,0,0,0,2.642,2.2,2.2,0,0,0,2.9,0l1.476-1.345.893.813a2.195,2.195,0,0,0,2.9,0A1.754,1.754,0,0,0,201.16,196.576Zm0,0" transform="translate(-130.803 79.262)" fill="#00d4b9"/>
    <path id="Path_40" data-name="Path 40" d="M237.917,232.72a5.111,5.111,0,0,0-.426-7.283,6.213,6.213,0,0,0-3.583-1.562l-8.362,7.619c.048,0,.1,0,.144,0a6.282,6.282,0,0,0,4.233-1.595l2-1.823a2.02,2.02,0,0,1,2.666,0,1.614,1.614,0,0,1,0,2.429l-3.927,3.578a1.753,1.753,0,0,0,0,2.642,2.2,2.2,0,0,0,2.9,0l1.476-1.345.893.813a2.195,2.195,0,0,0,2.9,0,1.753,1.753,0,0,0,0-2.643Zm0,0" transform="translate(-168.477 42.284)" fill="#00a793"/>
  </g>
</svg>
