<svg xmlns="http://www.w3.org/2000/svg" width="70" height="70" viewBox="0 0 70 70">
  <g id="Group_343" data-name="Group 343" transform="translate(-26 -749)">
    <g id="logout" transform="translate(26 749)">
      <path id="Path_46" data-name="Path 46" d="M63.853,37.92a8.75,8.75,0,0,1,0-17.5h5.833V8.754A8.761,8.761,0,0,0,60.936,0H29.582a2.914,2.914,0,0,0-2.724,3.955L48,59.376a2.911,2.911,0,0,0,2.724,1.878H60.936a8.761,8.761,0,0,0,8.75-8.75V37.92Zm0,0" transform="translate(-23.02 -0.004)" fill="#2196f3"/>
      <path id="Path_47" data-name="Path 47" d="M293.715,135.611a2.922,2.922,0,0,1-1.8-2.7v-8.75H280.249a2.916,2.916,0,1,1,0-5.833h11.666v-8.75a2.916,2.916,0,0,1,4.978-2.062l11.667,11.666a2.914,2.914,0,0,1,0,4.124l-11.667,11.667A2.917,2.917,0,0,1,293.715,135.611Zm0,0" transform="translate(-239.416 -92.083)" fill="#607d8b"/>
      <path id="Path_48" data-name="Path 48" d="M25.218,6.191,7.692.349A5.873,5.873,0,0,0,0,5.894v52.5A5.863,5.863,0,0,0,3.95,63.93l17.523,5.842a6.171,6.171,0,0,0,1.861.289,5.839,5.839,0,0,0,5.833-5.834v-52.5a5.864,5.864,0,0,0-3.949-5.536Zm0,0" transform="translate(0 -0.061)" fill="#64b5f6"/>
    </g>
  </g>
</svg>
