<svg xmlns="http://www.w3.org/2000/svg" width="70" height="76.087" viewBox="0 0 70 76.087">
  <g id="Group_341" data-name="Group 341" transform="translate(-26 -390)">
    <g id="icons8-user-male" transform="translate(26 390)">
      <path id="Path_188" data-name="Path 188" d="M21.556,30.246a7.527,7.527,0,0,1-7.778,7.246A7.527,7.527,0,0,1,6,30.246,7.527,7.527,0,0,1,13.778,23a7.527,7.527,0,0,1,7.778,7.246m54.444,0a7.8,7.8,0,0,1-15.556,0,7.8,7.8,0,0,1,15.556,0" transform="translate(-6 13.232)" fill="#ffa726"/>
      <path id="Path_189" data-name="Path 189" d="M9,26.464c0-23.053,58.333-15.007,58.333,0V44.58c0,15.007-13.059,27.174-29.167,27.174S9,59.587,9,44.58Z" transform="translate(-3.167 4.333)" fill="#ffb74d"/>
      <path id="Path_190" data-name="Path 190" d="M72.9,32.6c-.922-10.821-4.98-21.478-19.233-24.163L49.778,3H40.056C22.112,3,7,16.551,7,35.609v6.159l5.833,6.522V37.42L53.667,24.739l13.611,10.87V48.29l5.833-6.522V35.609A23.3,23.3,0,0,0,72.9,32.6" transform="translate(-5.056 -3)" fill="#424242"/>
      <path id="Path_191" data-name="Path 191" d="M50,29.623A3.9,3.9,0,1,1,46.111,26,3.762,3.762,0,0,1,50,29.623m-27.222,0a3.762,3.762,0,0,1-3.889,3.623,3.632,3.632,0,1,1,0-7.246,3.762,3.762,0,0,1,3.889,3.623" transform="translate(2.5 15.667)" fill="#19283e"/>
      <path id="Path_192" data-name="Path 192" d="M19,37H38.444s-3.889,5.435-9.722,5.435S19,37,19,37Z" transform="translate(6.278 24.594)" fill="#fb8c00"/>
    </g>
  </g>
</svg>
