<svg xmlns="http://www.w3.org/2000/svg" width="50" height="31.5" viewBox="0 0 50 31.5">
  <path id="Icon_awesome-credit-card" data-name="Icon awesome-credit-card" d="M0,30.375c0,1.863,1.866,3.375,4.167,3.375H45.833c2.3,0,4.167-1.512,4.167-3.375V18H0Zm16.667-4.781a.961.961,0,0,1,1.042-.844H29.514a.961.961,0,0,1,1.042.844v2.813a.961.961,0,0,1-1.042.844H17.708a.961.961,0,0,1-1.042-.844Zm-11.111,0A.961.961,0,0,1,6.6,24.75h6.25a.961.961,0,0,1,1.042.844v2.813a.961.961,0,0,1-1.042.844H6.6a.961.961,0,0,1-1.042-.844ZM50,5.625V9H0V5.625C0,3.762,1.866,2.25,4.167,2.25H45.833C48.134,2.25,50,3.762,50,5.625Z" transform="translate(0 -2.25)" fill="#19283e"/>
</svg>
