<svg xmlns="http://www.w3.org/2000/svg" width="50" height="38.889" viewBox="0 0 50 38.889">
  <path id="Icon_awesome-cc-mastercard" data-name="Icon awesome-cc-mastercard" d="M41.918,35.072a.973.973,0,1,1-.972-1.016A.97.97,0,0,1,41.918,35.072ZM14.939,34.056a1.018,1.018,0,1,0,.946,1.016A.96.96,0,0,0,14.939,34.056Zm10.2-.026a.8.8,0,0,0-.825.755h1.658A.8.8,0,0,0,25.139,34.03Zm9.358.026a1.017,1.017,0,1,0,.972,1.016A.96.96,0,0,0,34.5,34.056Zm9.193,2.266c0,.026.026.043.026.1,0,.026-.026.043-.026.1a.3.3,0,0,0-.043.069.112.112,0,0,1-.1.043c-.026.026-.043.026-.1.026a.172.172,0,0,1-.1-.026c-.026,0-.043-.026-.069-.043s-.043-.043-.043-.069a.158.158,0,0,1-.026-.1c0-.043,0-.069.026-.1a.163.163,0,0,1,.043-.1.3.3,0,0,1,.069-.043.158.158,0,0,1,.1-.026c.043,0,.069,0,.1.026.043.026.069.026.1.043S43.663,36.279,43.689,36.322Zm-.191.122c.043,0,.043-.026.069-.026a.106.106,0,0,0,0-.139c-.026,0-.043-.026-.1-.026h-.139v.3H43.4v-.122h.026l.1.122h.069l-.1-.113ZM50,6.487V37.043a4.168,4.168,0,0,1-4.167,4.167H4.167A4.168,4.168,0,0,1,0,37.043V6.487A4.168,4.168,0,0,1,4.167,2.32H45.833A4.168,4.168,0,0,1,50,6.487ZM5.556,18.605A12.017,12.017,0,0,0,24.219,28.622a12.945,12.945,0,0,1,0-20.009A12.017,12.017,0,0,0,5.556,18.605ZM25,28.049a12.019,12.019,0,0,0,0-18.88A12.019,12.019,0,0,0,25,28.049ZM12.648,34.673A1.216,1.216,0,0,0,11.372,33.4a1.241,1.241,0,0,0-1.111.564A1.151,1.151,0,0,0,9.2,33.4a1.1,1.1,0,0,0-.92.469v-.382H7.569v3.186h.712c0-1.641-.217-2.622.781-2.622.885,0,.712.885.712,2.622h.686c0-1.589-.217-2.622.781-2.622.885,0,.712.868.712,2.622h.712v-2Zm3.9-1.189h-.686v.382a1.251,1.251,0,0,0-1.016-.469,1.678,1.678,0,0,0,0,3.351,1.2,1.2,0,0,0,1.016-.469v.4h.686Zm3.516,2.222c0-1.3-1.988-.712-1.988-1.319,0-.495,1.033-.417,1.606-.1l.286-.564c-.816-.53-2.622-.521-2.622.712s1.988.72,1.988,1.3c0,.547-1.172.5-1.8.069l-.3.547C18.2,37.016,20.061,36.878,20.061,35.706Zm3.073.807-.191-.59c-.33.182-1.059.382-1.059-.356V34.126h1.137v-.642H21.884v-.972h-.712v.972h-.66v.634h.66v1.45c0,1.528,1.5,1.25,1.962.946Zm1.155-1.163h2.387c0-1.406-.642-1.962-1.51-1.962a1.563,1.563,0,0,0-1.58,1.675A1.732,1.732,0,0,0,26.519,36.3l-.33-.521c-.677.556-1.7.5-1.9-.425Zm5.13-1.866a1.019,1.019,0,0,0-1.319.382v-.382h-.712v3.186H28.1v-1.8a.724.724,0,0,1,1.111-.729l.208-.66Zm.92,1.589c0-.99,1.007-1.311,1.8-.729l.33-.564a1.718,1.718,0,1,0,0,2.6l-.33-.564C31.337,36.383,30.339,36.044,30.339,35.072Zm5.79-1.589h-.712v.382a1.524,1.524,0,0,0-2.6,1.207c0,1.667,1.944,2.144,2.6,1.207v.4h.712V33.484Zm2.925,0a1.043,1.043,0,0,0-1.319.382v-.382h-.686v3.186h.686v-1.8a.728.728,0,0,1,1.111-.729l.208-.66Zm3.5-1.293h-.686v1.675a1.578,1.578,0,1,0,0,2.413v.4h.686Zm.66-6.519v.4h.069v-.4h.165V25.6h-.4v.069h.165Zm.573,10.747a.265.265,0,0,0-.026-.139c-.026-.026-.043-.069-.069-.1s-.069-.043-.1-.069c-.043,0-.1-.026-.139-.026a.923.923,0,0,1-.122.026.453.453,0,0,0-.1.069.136.136,0,0,0-.069.1.265.265,0,0,0-.026.139.252.252,0,0,0,.026.122.136.136,0,0,0,.069.1.3.3,0,0,0,.1.069.236.236,0,0,0,.122.026.265.265,0,0,0,.139-.026c.026-.026.069-.043.1-.069s.043-.069.069-.1A.252.252,0,0,0,43.785,36.418Zm.278-10.825h-.122l-.139.3-.139-.3h-.122v.469h.069v-.356l.139.3h.1l.122-.3v.356h.1Zm.382-6.988a12.017,12.017,0,0,0-18.663-10,12.945,12.945,0,0,1,0,20.009A12.017,12.017,0,0,0,44.444,18.605Z" transform="translate(0 -2.32)" fill="#19283e"/>
</svg>
