<svg xmlns="http://www.w3.org/2000/svg" width="50" height="38.889" viewBox="0 0 50 38.889">
  <path id="Icon_awesome-cc-visa" data-name="Icon awesome-cc-visa" d="M40.807,19.55s.66,3.229.807,3.906h-2.9C39,22.684,40.1,19.681,40.1,19.681c-.017.026.286-.79.46-1.293l.243,1.163ZM50,6.417V36.972a4.168,4.168,0,0,1-4.167,4.167H4.167A4.168,4.168,0,0,1,0,36.972V6.417A4.168,4.168,0,0,1,4.167,2.25H45.833A4.168,4.168,0,0,1,50,6.417ZM13.238,28.222,18.724,14.75H15.035l-3.411,9.2-.373-1.866-1.215-6.2a1.452,1.452,0,0,0-1.58-1.137H2.839l-.061.269A13.775,13.775,0,0,1,6.441,16.5L9.549,28.222Zm8.194.017L23.62,14.75H20.13L17.951,28.24h3.481Zm12.144-4.41c.017-1.536-.92-2.708-2.925-3.672-1.224-.616-1.97-1.033-1.97-1.667.017-.573.634-1.163,2.005-1.163a5.981,5.981,0,0,1,2.6.512l.313.148.477-2.917a8.669,8.669,0,0,0-3.125-.573c-3.446,0-5.868,1.84-5.885,4.462-.026,1.936,1.736,3.012,3.056,3.663,1.345.66,1.806,1.094,1.806,1.675-.017.9-1.094,1.319-2.092,1.319a6.953,6.953,0,0,1-3.273-.72l-.46-.217-.486,3.03a10.651,10.651,0,0,0,3.889.72C31.163,28.439,33.55,26.625,33.576,23.83Zm12.257,4.41L43.021,14.75h-2.7A1.717,1.717,0,0,0,38.5,15.87L33.316,28.24h3.663s.6-1.667.729-2.023h4.479c.1.477.417,2.023.417,2.023Z" transform="translate(0 -2.25)" fill="#19283e"/>
</svg>
