<svg xmlns="http://www.w3.org/2000/svg" xmlns:xlink="http://www.w3.org/1999/xlink" width="130" height="163.556" viewBox="0 0 130 163.556">
  <defs>
    <linearGradient id="linear-gradient" x1="0.5" y1="1" x2="0.5" gradientUnits="objectBoundingBox">
      <stop offset="0" stop-color="gray" stop-opacity="0.251"/>
      <stop offset="0.54" stop-color="gray" stop-opacity="0.122"/>
      <stop offset="1" stop-color="gray" stop-opacity="0.102"/>
    </linearGradient>
  </defs>
  <g id="undraw_broadcast_jhwx" transform="translate(0 0.01)">
    <path id="Path_6200" data-name="Path 6200" d="M796.871,115.552a18.22,18.22,0,0,1,6.781,12.434,1.43,1.43,0,0,0,1.465,1.289l2.2-.064a1.435,1.435,0,0,0,1.388-1.57,23.336,23.336,0,0,0-24.314-21.113,1.437,1.437,0,0,0-1.362,1.594l.245,2.187a1.428,1.428,0,0,0,1.471,1.272A18.212,18.212,0,0,1,796.871,115.552Z" transform="translate(-678.71 -98.51)" fill="#19283e"/>
    <path id="Path_6201" data-name="Path 6201" d="M790.764,144.279a18.209,18.209,0,0,0-11.9-3.986,1.433,1.433,0,0,0-1.379,1.594l.183,1.63a1.43,1.43,0,0,0,1.448,1.272,13.778,13.778,0,0,1,13.916,12.075,1.435,1.435,0,0,0,1.463,1.265l1.639-.047a1.43,1.43,0,0,0,1.385-1.583,18.218,18.218,0,0,0-6.755-12.219Z" transform="translate(-674.358 -125.038)" fill="#19283e"/>
    <path id="Path_6202" data-name="Path 6202" d="M779.349,177.34a10.1,10.1,0,0,1,3.684,6.34,1.445,1.445,0,0,0,1.463,1.239l.793-.024a1.437,1.437,0,0,0,1.377-1.652,13.778,13.778,0,0,0-13.6-11.774,1.426,1.426,0,0,0-1.4,1.594l.088.79a1.446,1.446,0,0,0,1.433,1.274A10.082,10.082,0,0,1,779.349,177.34Z" transform="translate(-669.786 -149.525)" fill="#19283e"/>
    <path id="Path_6203" data-name="Path 6203" d="M309.209,115.552a18.22,18.22,0,0,0-6.781,12.434,1.43,1.43,0,0,1-1.465,1.289l-2.2-.064a1.435,1.435,0,0,1-1.388-1.57,23.336,23.336,0,0,1,24.314-21.113,1.437,1.437,0,0,1,1.362,1.594l-.245,2.182a1.428,1.428,0,0,1-1.471,1.272,18.212,18.212,0,0,0-12.127,3.978Z" transform="translate(-297.37 -98.51)" fill="#19283e"/>
    <path id="Path_6204" data-name="Path 6204" d="M335.935,144.279a18.209,18.209,0,0,1,11.9-3.986,1.433,1.433,0,0,1,1.379,1.594l-.183,1.63a1.43,1.43,0,0,1-1.448,1.272,13.778,13.778,0,0,0-13.916,12.075,1.435,1.435,0,0,1-1.463,1.265l-1.639-.047a1.43,1.43,0,0,1-1.385-1.583A18.218,18.218,0,0,1,335.935,144.279Z" transform="translate(-322.341 -125.038)" fill="#19283e"/>
    <path id="Path_6205" data-name="Path 6205" d="M365.716,177.34a10.1,10.1,0,0,0-3.684,6.34,1.446,1.446,0,0,1-1.463,1.239l-.793-.024a1.437,1.437,0,0,1-1.377-1.652A13.778,13.778,0,0,1,372,171.47a1.426,1.426,0,0,1,1.4,1.594l-.088.79a1.445,1.445,0,0,1-1.433,1.274,10.082,10.082,0,0,0-6.164,2.212Z" transform="translate(-345.279 -149.525)" fill="#19283e"/>
    <path id="Path_6206" data-name="Path 6206" d="M577.93,231.124V73.331a4.081,4.081,0,0,1,4.081-4.081h2.418a4.081,4.081,0,0,1,4.081,4.081V231.124C588.506,233.366,577.93,233.366,577.93,231.124Z" transform="translate(-517.67 -69.26)" fill="#535461"/>
    <rect id="Rectangle_1543" data-name="Rectangle 1543" width="78.768" height="65.415" rx="32.707" transform="translate(25.98 31.83)" fill="url(#linear-gradient)"/>
    <rect id="Rectangle_1544" data-name="Rectangle 1544" width="76.959" height="63.492" rx="31.746" transform="translate(26.942 32.792)" fill="#fff"/>
    <path id="Path_6207" data-name="Path 6207" d="M584.164,343.04a1.022,1.022,0,0,1,1.02,1.02v8.77a1.022,1.022,0,0,1-1.02,1.02H576.23a1.022,1.022,0,0,1-1.02-1.02v-8.77a1.022,1.022,0,0,1,1.02-1.02h7.936m0-.43H576.23a1.45,1.45,0,0,0-1.45,1.45v8.77a1.45,1.45,0,0,0,1.45,1.45h7.936a1.45,1.45,0,0,0,1.45-1.45v-8.77A1.45,1.45,0,0,0,584.166,342.61Z" transform="translate(-515.197 -283.907)" fill="#e0e0e0"/>
    <line id="Line_38" data-name="Line 38" y2="2.461" transform="translate(65 61.94)" fill="none" stroke="#19283e" stroke-linecap="round" stroke-miterlimit="10" stroke-width="2"/>
    <path id="Path_6208" data-name="Path 6208" d="M593.032,362.629a2.189,2.189,0,1,1-2.023-.019" transform="translate(-527.001 -299.611)" fill="none" stroke="#19283e" stroke-linecap="round" stroke-miterlimit="10" stroke-width="2"/>
  </g>
</svg>
