<svg height="512" viewBox="0 0 55 60" width="512" xmlns="http://www.w3.org/2000/svg"><g id="Page-1" fill="none" fill-rule="evenodd"><g id="022---Mobile-Credit-Card-Information" fill-rule="nonzero"><path id="Shape" d="m35 51v5c0 1.6568542-1.3431458 3-3 3h-28c-1.65685425 0-3-1.3431458-3-3v-5c0 1.6568542 1.34314575 3 3 3h28c1.6568542 0 3-1.3431458 3-3z" fill="#3f51b5"/><path id="Shape" d="m32 54v2c0 1.6568542-1.3431458 3-3 3h3c1.6568542 0 3-1.3431458 3-3v-5c0 1.6568542-1.3431458 3-3 3z" fill="#283593"/><path id="Shape" d="m11.72 20 1.76 4h-1.48c-1.6568542 0-3 1.3431458-3 3v18c0 1.6568542 1.3431458 3 3 3h23v3c0 1.6568542-1.3431458 3-3 3h-28c-1.65685425 0-3-1.3431458-3-3v-47c0-1.65685425 1.34314575-3 3-3h28c1.6568542 0 3 1.34314575 3 3v2.57l-21.72 9.43c-.7439106.3158334-1.3289268.9184519-1.6225749 1.6713958-.2936481.7529438-.2710868 1.5925176.0625749 2.3286042z" fill="#02a9f4"/><path id="Shape" d="m32 51c0 1.6568542-1.3431458 3-3 3h3c1.6568542 0 3-1.3431458 3-3v-3h-3z" fill="#0377bc"/><path id="Shape" d="m32 1h-3c1.6568542 0 3 1.34314575 3 3v2.57l-21.72 9.43c-.74391055.3158334-1.3289268.9184519-1.6225749 1.6713958-.2936481.7529438-.27108684 1.5925176.0625749 2.3286042l1.76 4h-1.48c-1.65685425 0-3 1.3431458-3 3v18c0 1.6568542 1.34314575 3 3 3h3c-1.6568542 0-3-1.3431458-3-3v-18c0-1.6568542 1.3431458-3 3-3h1.48l-1.76-4c-.3336617-.7360866-.356223-1.5756604-.0625749-2.3286042.2936481-.7529439.8786643-1.3555624 1.6225749-1.6713958l21.72-9.43v-2.57c0-1.65685425-1.3431458-3-3-3z" fill="#0377bc"/><path id="Shape" d="m28 1-2.86 3.05c-.5552143.59345073-1.3274375.93626008-2.14.95h-9.9c-.8375997-.01295328-1.6316336-.37552582-2.19-1l-2.91-3z" fill="#3f51b5"/><rect id="Rectangle-path" fill="#ffeb3a" height="24" rx="3" width="38" x="9" y="24"/><path id="Shape" d="m44 24h-3c1.6568542 0 3 1.3431458 3 3v18c0 1.6568542-1.3431458 3-3 3h3c1.6568542 0 3-1.3431458 3-3v-18c0-1.6568542-1.3431458-3-3-3z" fill="#fdd834"/><path id="Shape" d="m52.2 25.26-5.2 2.26v-.52c0-1.6568542-1.3431458-3-3-3h-30.52l-1.76-4c-.3336617-.7360866-.356223-1.5756604-.0625749-2.3286042.2936481-.7529439.8786643-1.3555624 1.6225749-1.6713958l21.72-9.43 7.63-3.32c1.5160855-.65630934 3.2774718.03662184 3.94 1.55l4.43 10.09 2 4.59.8 1.83c.3153858.735582.323774 1.5666905.023299 2.3084882s-.8848998 1.3327795-1.623299 1.6415118z" fill="#ffdc00"/><path id="Shape" d="m53.75 21.31-.75-1.83-2-4.59-4.43-10.09c-.6625282-1.51337816-2.4239145-2.20630934-3.94-1.55l-.34.15c.5668597.31593871 1.0159876.8071723 1.28 1.4l4.43 10.09 2 4.59.8 1.83c.3342516.734831.3582448 1.5733624.0665576 2.3261036s-.8744361 1.35616-1.6165576 1.6738964l-2.3 1c.043219.2273023.0599972.4588414.05.69v.52l5.2-2.26c.7294206-.318172 1.3025387-.9131212 1.5932325-1.6539214.2906937-.7408003.2751421-1.5667464-.0432325-2.2960786z" fill="#fec108"/><circle id="Oval" cx="15" cy="30" fill="#e91e63" r="2"/><circle id="Oval" cx="19" cy="30" fill="#3f51b5" r="2"/><g fill="#f5f5f5"><path id="Shape" d="m17 40h-3c-.5522847 0-1-.4477153-1-1s.4477153-1 1-1h3c.5522847 0 1 .4477153 1 1s-.4477153 1-1 1z"/><path id="Shape" d="m30 40h-9c-.5522847 0-1-.4477153-1-1s.4477153-1 1-1h9c.5522847 0 1 .4477153 1 1s-.4477153 1-1 1z"/><path id="Shape" d="m33 44h-19c-.5522847 0-1-.4477153-1-1s.4477153-1 1-1h19c.5522847 0 1 .4477153 1 1s-.4477153 1-1 1z"/><path id="Shape" d="m33.22 12.7c-.467844-.0067289-.8684782-.3369618-.9643855-.7949193-.0959073-.4579574.1385551-.9211949.5643855-1.1150807l.92-.4c.3326166-.1773189.7366812-.1525438 1.0451432.0640825s.4689096.5882962.4150098.961352c-.0538998.3730557-.3129888.6841102-.670153.8045655l-.91.4c-.1264203.053867-.2625862.0811002-.4.08z"/><path id="Shape" d="m37.8 10.71c-.4767253.0038901-.8899068-.3292922-.9871402-.79601245-.0972334-.4667203.1485224-.93718119.5871402-1.12398755l4.6-1.99c.330607-.16579093.725725-.13556892 1.0272714.07857452.3015463.21414343.4602756.57723661.4126818.94400962s-.2937382.67732832-.6399532.80741586l-4.59 2c-.1303022.0526101-.269478.0797664-.41.08z"/><path id="Shape" d="m37.56 15.18c-.4767253.0038901-.8899068-.3292922-.9871402-.7960125-.0972334-.4667202.1485224-.9371811.5871402-1.1239875l6.42-2.79c.330607-.1657909.725725-.1355689 1.0272714.0785745.3015463.2141434.4602756.5772366.4126818.9440096-.0475938.3667731-.2937382.6773284-.6399532.8074159l-6.38 2.79c-.1371118.065495-.2881833.096396-.44.09z"/></g><path id="Shape" d="m52.95 19.48-10.4 4.52h-12.55l5-2.17 15.96-6.94z" fill="#3f51b5"/><path id="Shape" d="m32 60c2.209139 0 4-1.790861 4-4v-7h8c2.209139 0 4-1.790861 4-4v-16.82l4.6-2c.9739972-.4235845 1.7395392-1.2171508 2.127847-2.2057413.3883079-.9885906.3674961-2.0910282-.057847-3.0642587l-2.12-4.91-.67-1.54-4.39-10.06c-.8821251-2.02284762-3.2358452-2.94912149-5.26-2.07l-6.23 2.67v-1c0-2.209139-1.790861-4-4-4h-28c-2.209139 0-4 1.790861-4 4v52c0 2.209139 1.790861 4 4 4zm12-13h-32c-1.1045695 0-2-.8954305-2-2v-18c0-1.1045695.8954305-2 2-2h32c1.1045695 0 2 .8954305 2 2v.53 17.47c0 1.1045695-.8954305 2-2 2zm6.59-30.46 1 2.42-9.3 4h-7.48l15.63-6.79zm1.21 7.8-3.92 1.71c-.2686322-1.0428325-.9463966-1.9332994-1.88-2.47l6.4-2.79.39.92c.4452454.9998725.0040571 2.1719182-.99 2.63zm-8.8-20.17c.9998956-.43733358 2.165781.00766087 2.62 1l4 9.17-19.83 8.66h-15.65l-1.5-3.44c-.4439471-1.0025698.0020958-2.1756626 1-2.63l21.7-9.44zm-17.31-2.17-1.28 1.37c-.3666957.39030942-.874608.61724897-1.41.63h-9.9c-.5528207.00080487-1.081318-.2272453-1.46-.63l-1.33-1.37zm-23.69 2c0-1.1045695.8954305-2 2-2h3.57l2.56 2.74c.7573641.8055094 1.8143585 1.26160975 2.92 1.26h9.95c1.1056415.00160975 2.1626359-.4544906 2.92-1.26l2.51-2.74h3.57c1.1045695 0 2 .8954305 2 2v1.91l-21.12 9.18c-.9757903.4217083-1.743587 1.2144849-2.1338484 2.2032723-.3902615.9887875-.3708859 2.0922507.0538484 3.0667277l1.2 2.64c-2.209139 0-4 1.790861-4 4v18c0 2.209139 1.790861 4 4 4h22v2c0 1.1045695-.8954305 2-2 2h-28c-1.1045695 0-2-.8954305-2-2zm0 52v-1.56c.60399287.3635516 1.29504012.5570448 2 .56h28c.7049599-.0029552 1.3960071-.1964484 2-.56v1.56c0 1.1045695-.8954305 2-2 2h-28c-1.1045695 0-2-.8954305-2-2z" fill="#000"/><path id="Shape" d="m19 27c-.7400546.0044106-1.452363.2822109-2 .78-.547637-.4977891-1.2599454-.7755894-2-.78-1.6568542 0-3 1.3431458-3 3s1.3431458 3 3 3c.7400546-.0044106 1.452363-.2822109 2-.78.9933291.9028176 2.4654891 1.0359148 3.6046342.325893s1.6680028-2.0903404 1.2949262-3.3797574c-.3730765-1.289417-1.557279-2.1740833-2.8995604-2.1661356zm-4 4c-.5522847 0-1-.4477153-1-1s.4477153-1 1-1 1 .4477153 1 1-.4477153 1-1 1zm4 0c-.5522847 0-1-.4477153-1-1s.4477153-1 1-1 1 .4477153 1 1-.4477153 1-1 1z" fill="#000"/></g></g></svg>