<svg id="access_1_" data-name="access (1)" xmlns="http://www.w3.org/2000/svg" width="120" height="95.172" viewBox="0 0 120 95.172">
  <path id="Path_6209" data-name="Path 6209" d="M8.276,0H111.724A8.3,8.3,0,0,1,120,8.276V57.931a8.3,8.3,0,0,1-8.276,8.276H8.276A8.3,8.3,0,0,1,0,57.931V8.276A8.3,8.3,0,0,1,8.276,0Zm0,0" fill="#e2c8ac"/>
  <path id="Path_6210" data-name="Path 6210" d="M321.655,200.828A24.828,24.828,0,1,1,296.828,176,24.828,24.828,0,0,1,321.655,200.828Zm0,0" transform="translate(-201.655 -130.483)" fill="#e23333"/>
  <path id="Path_6211" data-name="Path 6211" d="M313.859,243.357l25.025-25.3,2.942,2.909-25.024,25.3Zm0,0" transform="translate(-232.689 -161.662)" fill="#fff"/>
  <path id="Path_6212" data-name="Path 6212" d="M314.254,221.187l2.927-2.926,24.87,24.87-2.926,2.926Zm0,0" transform="translate(-232.981 -161.815)" fill="#fff"/>
  <g id="Group_421" data-name="Group 421" transform="translate(55.862 10.345)">
    <path id="Path_6213" data-name="Path 6213" d="M216,40h24.828v4.138H216Zm0,0" transform="translate(-216 -40)" fill="#ceb195"/>
    <path id="Path_6214" data-name="Path 6214" d="M216,72h57.931v4.138H216Zm0,0" transform="translate(-216 -63.724)" fill="#ceb195"/>
    <path id="Path_6215" data-name="Path 6215" d="M216,104h57.931v4.138H216Zm0,0" transform="translate(-216 -87.448)" fill="#ceb195"/>
    <path id="Path_6216" data-name="Path 6216" d="M216,136h57.931v4.138H216Zm0,0" transform="translate(-216 -111.172)" fill="#ceb195"/>
    <path id="Path_6217" data-name="Path 6217" d="M216,168h16.552v4.138H216Zm0,0" transform="translate(-216 -134.897)" fill="#ceb195"/>
    <path id="Path_6218" data-name="Path 6218" d="M216,200h12.414v4.138H216Zm0,0" transform="translate(-216 -158.621)" fill="#ceb195"/>
  </g>
  <path id="Path_6219" data-name="Path 6219" d="M73.379,68.69A20.69,20.69,0,1,1,52.69,48,20.689,20.689,0,0,1,73.379,68.69Zm0,0" transform="translate(-23.724 -35.586)" fill="#239172"/>
  <path id="Path_6220" data-name="Path 6220" d="M70.483,113.1a20.005,20.005,0,0,0,14.483-6l-1.655-8.483a4,4,0,0,0-2.276-2.9l-4.759-2.483a2,2,0,0,1-1.034-2.482l1.242-3.725a5.389,5.389,0,0,0-3.311-6.827A5.718,5.718,0,0,0,71.31,80H69.655a5.478,5.478,0,0,0-5.38,5.38,4.027,4.027,0,0,0,.207,1.655l1.242,3.725a2,2,0,0,1-1.034,2.482l-4.759,2.483a4.566,4.566,0,0,0-2.276,2.9L56,107.1a20.005,20.005,0,0,0,14.483,6Zm0,0" transform="translate(-41.517 -59.31)" fill="#e9e9e9"/>
</svg>
